HIERARCHY
ROOT Hips
{
	OFFSET 0.000000 83.208069 2.550922
	CHANNELS 6 Xposition Yposition Zposition Xrotation Yrotation Zrotation
	JOINT Pelvis
	{
		OFFSET 0.000000 0.000000 0.000000
		CHANNELS 3 Xrotation Yrotation Zrotation
		JOINT LeftUpLeg
		{
			OFFSET 8.479694 -4.795517 -0.379053
			CHANNELS 3 Xrotation Yrotation Zrotation
			JOINT LeftLeg
			{
				OFFSET 0.485052 -32.551468 0.112863
				CHANNELS 3 Xrotation Yrotation Zrotation
				JOINT LeftFoot
				{
					OFFSET 0.438033 -32.635670 -3.012641
					CHANNELS 3 Xrotation Yrotation Zrotation
					JOINT LeftToeBase
					{
						OFFSET 0.970169 -13.225353 11.864223
						CHANNELS 3 Xrotation Yrotation Zrotation
						End Site
						{
							OFFSET 0.000000 12.319231 0.000000
						}
					}
					JOINT LFootTongue
					{
						OFFSET 1.142399 -1.059789 6.665162
						CHANNELS 3 Xrotation Yrotation Zrotation
						End Site
						{
							OFFSET 0.000000 12.319230 0.000000
						}
					}
				}
				JOINT LeftPantLeg
				{
					OFFSET 1.152549 -16.519323 -2.284731
					CHANNELS 3 Xrotation Yrotation Zrotation
					End Site
					{
						OFFSET 0.000000 24.746851 0.000000
					}
				}
			}
		}
		JOINT RightUpLeg
		{
			OFFSET -8.479694 -4.795517 -0.379053
			CHANNELS 3 Xrotation Yrotation Zrotation
			JOINT RightLeg
			{
				OFFSET -0.484100 -32.551483 0.112903
				CHANNELS 3 Xrotation Yrotation Zrotation
				JOINT RightFoot
				{
					OFFSET -0.438985 -32.635651 -3.012681
					CHANNELS 3 Xrotation Yrotation Zrotation
					JOINT RightToeBase
					{
						OFFSET -0.970169 -13.225354 11.864223
						CHANNELS 3 Xrotation Yrotation Zrotation
						End Site
						{
							OFFSET 0.000000 12.319217 0.000000
						}
					}
					JOINT RFootTongue
					{
						OFFSET -1.142220 -1.059793 6.665161
						CHANNELS 3 Xrotation Yrotation Zrotation
						End Site
						{
							OFFSET 0.000000 12.319217 0.000000
						}
					}
				}
				JOINT RightPantLeg
				{
					OFFSET -1.153501 -16.519308 -2.284772
					CHANNELS 3 Xrotation Yrotation Zrotation
					End Site
					{
						OFFSET 0.000000 24.746878 0.000000
					}
				}
			}
		}
	}
	JOINT Spine
	{
		OFFSET 0.000000 7.722015 1.166203
		CHANNELS 3 Xrotation Yrotation Zrotation
		JOINT Spine1
		{
			OFFSET 0.000000 12.024086 0.248766
			CHANNELS 3 Xrotation Yrotation Zrotation
			JOINT Spine2
			{
				OFFSET -0.000000 11.503036 -0.491240
				CHANNELS 3 Xrotation Yrotation Zrotation
				JOINT Neck
				{
					OFFSET 0.000000 18.430687 -3.123054
					CHANNELS 3 Xrotation Yrotation Zrotation
					JOINT Head
					{
						OFFSET -0.000000 9.051071 1.034021
						CHANNELS 3 Xrotation Yrotation Zrotation
						JOINT HairB
						{
							OFFSET 0.208397 24.786072 24.822304
							CHANNELS 3 Xrotation Yrotation Zrotation
							End Site
							{
								OFFSET 0.000000 32.263794 0.000000
							}
						}
						JOINT HairA
						{
							OFFSET -7.081073 24.428299 23.196634
							CHANNELS 3 Xrotation Yrotation Zrotation
							End Site
							{
								OFFSET 0.000000 32.263779 0.000000
							}
						}
						JOINT Hat
						{
							OFFSET 16.728800 15.048309 -15.439650
							CHANNELS 3 Xrotation Yrotation Zrotation
							End Site
							{
								OFFSET 0.000000 32.263794 0.000000
							}
						}
					}
				}
				JOINT LeftShoulder
				{
					OFFSET 6.197824 13.665230 -4.064723
					CHANNELS 3 Xrotation Yrotation Zrotation
					JOINT LeftArm
					{
						OFFSET 7.778132 -0.187073 -1.709282
						CHANNELS 3 Xrotation Yrotation Zrotation
						JOINT LeftForeArm
						{
							OFFSET 21.954697 0.000000 -2.041093
							CHANNELS 3 Xrotation Yrotation Zrotation
							JOINT LeftHand
							{
								OFFSET 22.992908 0.000000 -0.870901
								CHANNELS 3 Xrotation Yrotation Zrotation
								JOINT LeftHandThumb1
								{
									OFFSET 3.593975 -1.460358 3.365570
									CHANNELS 3 Xrotation Yrotation Zrotation
									JOINT LeftHandThumb2
									{
										OFFSET 3.016712 -1.561966 2.119022
										CHANNELS 3 Xrotation Yrotation Zrotation
										JOINT LeftHandThumb3
										{
											OFFSET 3.029564 -2.099800 1.415844
											CHANNELS 3 Xrotation Yrotation Zrotation
											End Site
											{
												OFFSET 0.000000 3.948677 0.000000
											}
										}
									}
								}
								JOINT LeftHandIndex1
								{
									OFFSET 11.372505 0.065018 3.699154
									CHANNELS 3 Xrotation Yrotation Zrotation
									JOINT LeftHandIndex2
									{
										OFFSET 3.229195 -0.574921 -0.143498
										CHANNELS 3 Xrotation Yrotation Zrotation
										JOINT LeftHandIndex3
										{
											OFFSET 3.111160 -1.135635 -0.280794
											CHANNELS 3 Xrotation Yrotation Zrotation
											End Site
											{
												OFFSET 0.000000 3.323822 0.000000
											}
										}
									}
								}
								JOINT LeftHandMiddle1
								{
									OFFSET 11.327377 0.426697 -0.098180
									CHANNELS 3 Xrotation Yrotation Zrotation
									JOINT LeftHandMiddle2
									{
										OFFSET 3.290932 -0.875465 -0.186927
										CHANNELS 3 Xrotation Yrotation Zrotation
										JOINT LeftHandMiddle3
										{
											OFFSET 3.094551 -1.150223 -0.267588
											CHANNELS 3 Xrotation Yrotation Zrotation
											End Site
											{
												OFFSET 0.000000 3.312233 0.000000
											}
										}
									}
								}
								JOINT LeftHandRing1
								{
									OFFSET 11.497078 -0.008904 -3.070051
									CHANNELS 3 Xrotation Yrotation Zrotation
									JOINT LeftHandRing2
									{
										OFFSET 2.881340 -0.992859 -0.186928
										CHANNELS 3 Xrotation Yrotation Zrotation
										JOINT LeftHandRing3
										{
											OFFSET 3.022743 -1.281013 -0.290960
											CHANNELS 3 Xrotation Yrotation Zrotation
											End Site
											{
												OFFSET 0.000000 3.295853 0.000000
											}
										}
									}
								}
								JOINT LeftHandPinky1
								{
									OFFSET 10.529488 -1.373093 -5.625615
									CHANNELS 3 Xrotation Yrotation Zrotation
									JOINT LeftHandPinky2
									{
										OFFSET 2.679024 -0.950073 -0.330554
										CHANNELS 3 Xrotation Yrotation Zrotation
										JOINT LeftHandPinky3
										{
											OFFSET 2.724571 -0.843613 -0.252685
											CHANNELS 3 Xrotation Yrotation Zrotation
											End Site
											{
												OFFSET 0.000000 2.863358 0.000000
											}
										}
									}
								}
							}
							JOINT LSleeve
							{
								OFFSET 6.633202 -0.344879 -1.263650
								CHANNELS 3 Xrotation Yrotation Zrotation
								End Site
								{
									OFFSET 0.000000 14.885345 0.000000
								}
							}
						}
					}
				}
				JOINT RightShoulder
				{
					OFFSET -6.197824 13.665230 -4.064723
					CHANNELS 3 Xrotation Yrotation Zrotation
					JOINT RightArm
					{
						OFFSET -7.778132 -0.187073 -1.709282
						CHANNELS 3 Xrotation Yrotation Zrotation
						JOINT RightForeArm
						{
							OFFSET -21.954697 0.000000 -2.041093
							CHANNELS 3 Xrotation Yrotation Zrotation
							JOINT RightHand
							{
								OFFSET -22.992908 0.000000 -0.870901
								CHANNELS 3 Xrotation Yrotation Zrotation
								JOINT RightHandThumb1
								{
									OFFSET -3.593975 -1.460358 3.365570
									CHANNELS 3 Xrotation Yrotation Zrotation
									JOINT RightHandThumb2
									{
										OFFSET -3.016712 -1.561966 2.119022
										CHANNELS 3 Xrotation Yrotation Zrotation
										JOINT RightHandThumb3
										{
											OFFSET -3.029564 -2.099800 1.415844
											CHANNELS 3 Xrotation Yrotation Zrotation
											End Site
											{
												OFFSET 0.000000 3.948677 0.000000
											}
										}
									}
								}
								JOINT RightHandIndex1
								{
									OFFSET -11.372513 0.065018 3.699154
									CHANNELS 3 Xrotation Yrotation Zrotation
									JOINT RightHandIndex2
									{
										OFFSET -3.229187 -0.574921 -0.143498
										CHANNELS 3 Xrotation Yrotation Zrotation
										JOINT RightHandIndex3
										{
											OFFSET -3.111160 -1.135635 -0.280794
											CHANNELS 3 Xrotation Yrotation Zrotation
											End Site
											{
												OFFSET 0.000000 3.323822 0.000000
											}
										}
									}
								}
								JOINT RightHandMiddle1
								{
									OFFSET -11.327377 0.426697 -0.098180
									CHANNELS 3 Xrotation Yrotation Zrotation
									JOINT RightHandMiddle2
									{
										OFFSET -3.290932 -0.875465 -0.186927
										CHANNELS 3 Xrotation Yrotation Zrotation
										JOINT RightHandMiddle3
										{
											OFFSET -3.094551 -1.150223 -0.267588
											CHANNELS 3 Xrotation Yrotation Zrotation
											End Site
											{
												OFFSET 0.000000 3.312233 0.000000
											}
										}
									}
								}
								JOINT RightHandRing1
								{
									OFFSET -11.497078 -0.008904 -3.070051
									CHANNELS 3 Xrotation Yrotation Zrotation
									JOINT RightHandRing2
									{
										OFFSET -2.881340 -0.992859 -0.186928
										CHANNELS 3 Xrotation Yrotation Zrotation
										JOINT RightHandRing3
										{
											OFFSET -3.022743 -1.281013 -0.290960
											CHANNELS 3 Xrotation Yrotation Zrotation
											End Site
											{
												OFFSET 0.000000 3.295853 0.000000
											}
										}
									}
								}
								JOINT RightHandPinky1
								{
									OFFSET -10.529488 -1.373093 -5.625615
									CHANNELS 3 Xrotation Yrotation Zrotation
									JOINT RightHandPinky2
									{
										OFFSET -2.679024 -0.950073 -0.330554
										CHANNELS 3 Xrotation Yrotation Zrotation
										JOINT RightHandPinky3
										{
											OFFSET -2.724571 -0.843613 -0.252685
											CHANNELS 3 Xrotation Yrotation Zrotation
											End Site
											{
												OFFSET 0.000000 2.863358 0.000000
											}
										}
									}
								}
							}
							JOINT RSleeve
							{
								OFFSET -6.633202 -0.344879 -1.263650
								CHANNELS 3 Xrotation Yrotation Zrotation
								End Site
								{
									OFFSET 0.000000 14.885345 0.000000
								}
							}
						}
					}
				}
				JOINT Backpack
				{
					OFFSET -0.000000 -2.471489 36.677479
					CHANNELS 3 Xrotation Yrotation Zrotation
					End Site
					{
						OFFSET 0.000000 20.427322 0.000000
					}
				}
				JOINT Hood
				{
					OFFSET -0.000000 18.754143 -10.430963
					CHANNELS 3 Xrotation Yrotation Zrotation
					JOINT Hood1
					{
						OFFSET -0.000000 -5.011017 -7.685929
						CHANNELS 3 Xrotation Yrotation Zrotation
						End Site
						{
							OFFSET 0.000000 9.175171 0.000000
						}
					}
				}
				JOINT LHoodieString
				{
					OFFSET 5.250455 16.397728 3.089918
					CHANNELS 3 Xrotation Yrotation Zrotation
					JOINT LHoodieString1
					{
						OFFSET 0.257711 -6.364296 3.694587
						CHANNELS 3 Xrotation Yrotation Zrotation
						JOINT LHoodieString2
						{
							OFFSET 0.000000 -9.643806 2.679132
							CHANNELS 3 Xrotation Yrotation Zrotation
							End Site
							{
								OFFSET 0.000000 10.009033 0.000000
							}
						}
					}
				}
				JOINT RHoodieString
				{
					OFFSET -5.250455 16.397728 3.089918
					CHANNELS 3 Xrotation Yrotation Zrotation
					JOINT RHoodieString1
					{
						OFFSET -0.257711 -6.364296 3.694587
						CHANNELS 3 Xrotation Yrotation Zrotation
						JOINT RHoodieString2
						{
							OFFSET 0.000000 -9.643806 2.679132
							CHANNELS 3 Xrotation Yrotation Zrotation
							End Site
							{
								OFFSET 0.000000 10.009033 0.000000
							}
						}
					}
				}
			}
			JOINT LBackpack_Strap
			{
				OFFSET 15.223173 -7.719788 -6.610897
				CHANNELS 3 Xrotation Yrotation Zrotation
				End Site
				{
					OFFSET 0.000000 16.040596 0.000000
				}
			}
			JOINT RBackpack_Strap
			{
				OFFSET -15.223000 -7.719788 -6.610897
				CHANNELS 3 Xrotation Yrotation Zrotation
				End Site
				{
					OFFSET 0.000000 16.040596 0.000000
				}
			}
		}
	}
	JOINT BoyFacialAnim_Joint
	{
		OFFSET 1.000000 -82.208069 -1.550922
		CHANNELS 3 Xrotation Yrotation Zrotation
		End Site
		{
			OFFSET 0.000000 30.012787 0.000000
		}
	}
}
MOTION
Frames: 4
Frame Time: 0.016667
2.866677 97.173859 5.936848 -12.476979 -0.889989 -1.906826 0.000000 -0.000000 0.000000 -3.141189 -16.969084 11.055487 90.505853 11.007104 0.392894 15.107904 6.608862 17.457525 0.000001 0.000000 -0.000000 0.000002 0.000001 -0.000001 -0.000003 0.000002 0.000000 -5.309039 16.841127 -15.647897 66.056535 7.083006 -6.667679 20.581438 0.014073 7.676505 -0.000002 0.000001 0.000001 -0.000002 0.000001 0.000001 0.000002 -0.000000 0.000000 -3.004861 -2.663268 2.896668 1.341452 -0.394057 2.093239 1.345709 -0.282894 2.116649 9.657575 -4.849570 7.404082 10.314034 -25.265823 25.481337 -0.000003 0.000000 0.000001 -0.000003 0.000000 0.000001 -0.000003 0.000000 0.000001 0.516763 0.363760 -1.548774 -67.596401 6.376422 -6.244389 -0.000007 -100.180768 0.000007 38.489769 -8.489616 55.329409 -34.343199 0.033494 0.974645 -5.731295 5.062913 15.642340 0.000001 0.000001 -0.000000 0.946052 -1.490309 26.537957 0.134903 -2.438582 9.003647 0.000001 0.000001 -0.000000 0.012640 2.661227 29.339989 -0.277882 -1.580495 2.611016 -0.000001 0.000001 0.000001 -0.928652 8.326825 30.983036 -0.746467 -1.598050 -1.386491 -0.000001 -0.000000 -0.000001 -1.170599 14.797770 29.063777 -1.747198 -2.332303 -9.347020 -0.000002 0.000000 0.000000 -0.000000 -0.000000 -0.000000 0.412526 -1.336043 6.758883 -57.081581 -2.775510 -3.338179 -0.000162 95.342167 0.000169 16.763811 22.840224 -68.336097 -14.777971 4.527469 -8.465326 -0.213731 -5.549389 -5.077390 -0.000003 0.000000 -0.000001 -0.038621 2.242307 -2.539065 0.082343 2.449991 -8.420839 0.000001 0.000000 -0.000001 0.672549 -1.568738 -7.925103 -0.109816 1.552750 -4.500883 0.000001 0.000001 0.000002 1.412647 -6.786280 -12.690342 -0.259667 1.570045 -3.606163 -0.000000 0.000000 -0.000001 2.111410 -8.645130 -13.653026 0.302831 -1.559441 2.303212 0.000001 -0.000000 0.000003 -0.000001 0.000000 -0.000002 -0.000001 -0.000000 -0.000000 -0.000001 -0.000000 -0.000000 -0.000001 -0.000000 -0.000000 -0.000001 -0.000000 -0.000000 -0.000001 -0.000000 -0.000000 -0.000001 -0.000000 -0.000000 -0.000001 -0.000000 -0.000000 -0.000001 -0.000000 -0.000000 -0.000001 -0.000000 0.000000 -0.000001 0.000001 -0.000000 -0.000001 0.000001 -0.000000 0.000000 -0.000000 0.000000 
2.812971 97.231720 6.003820 -11.448794 -1.126718 -2.352808 0.000001 0.000000 -0.000000 -3.916844 -11.881537 10.547215 81.888634 7.876944 1.844879 12.091026 4.678614 15.387812 0.000001 -0.000002 0.000002 0.000001 -0.000001 0.000001 0.000000 0.000001 0.000000 -5.157381 12.150181 -14.588951 56.452941 8.572820 -6.877371 16.320787 2.462090 9.919704 -0.000002 -0.000001 -0.000001 -0.000002 -0.000001 -0.000001 0.000001 -0.000000 -0.000000 -4.331002 -3.083778 3.211542 2.021577 -0.426598 2.098099 2.027285 -0.327237 2.120048 9.516430 -4.818839 7.555534 10.160711 -24.632283 24.655159 0.000001 -0.000002 0.000000 0.000001 -0.000002 0.000000 0.000001 -0.000002 0.000000 0.564558 0.109995 -2.570521 -65.530918 5.919811 -6.950891 0.000387 -96.813690 0.000401 38.870607 -8.757748 54.300684 -33.780596 0.419831 1.349974 -5.668775 5.100972 15.516778 0.000001 -0.000001 -0.000003 0.926469 -1.513249 25.961745 0.120877 -2.442111 8.848946 -0.000000 -0.000000 0.000000 0.091245 2.439203 28.607670 -0.306665 -1.584508 2.287723 0.000001 0.000000 -0.000001 -0.706439 7.854368 30.040927 -0.798636 -1.598500 -1.920818 0.000000 -0.000000 -0.000000 -0.774356 14.091095 27.916013 -1.815224 -2.331110 -10.039908 -0.000000 -0.000000 -0.000001 0.000001 0.000000 -0.000001 0.561008 -1.704311 9.089360 -54.584164 -5.514906 -2.184524 0.000002 92.800742 -0.000011 16.910012 26.609802 -66.817849 -14.449173 4.085475 -8.667640 -0.213731 -5.549388 -5.077396 -0.000000 -0.000001 -0.000000 -0.048253 2.246726 -2.334202 0.063139 2.454384 -8.209034 0.000000 -0.000001 0.000001 0.659411 -1.400041 -7.584349 -0.126442 1.555430 -4.312380 -0.000001 -0.000001 0.000001 1.428733 -6.408118 -12.181251 -0.272973 1.571240 -3.468624 0.000001 -0.000001 0.000000 2.150755 -8.075018 -12.997623 0.302828 -1.559424 2.303291 0.000000 -0.000000 -0.000000 0.000000 0.000001 0.000000 -0.000001 0.000000 -0.000000 -0.000001 0.000000 -0.000000 -0.000001 0.000000 -0.000000 -0.000001 0.000000 -0.000000 -0.000001 0.000000 -0.000000 -0.000001 0.000000 -0.000000 -0.000001 0.000000 -0.000000 -0.000001 0.000000 -0.000000 -0.000001 0.000000 -0.000000 0.000001 0.000000 -0.000000 0.000001 0.000000 -0.000000 0.000001 0.000000 -0.000000 
2.666257 96.971603 5.993524 -10.227179 -1.379505 -2.504417 -0.000002 -0.000000 0.000000 -4.737295 -5.526527 9.781324 72.523126 1.564963 4.422295 9.905386 4.460621 12.078677 0.000000 -0.000000 -0.000003 0.000000 0.000000 -0.000001 0.000003 0.000000 0.000001 -4.258552 8.567753 -13.747699 45.586404 7.540603 -5.833955 13.782822 7.987972 12.106261 0.000001 -0.000000 -0.000001 0.000001 -0.000000 -0.000000 0.000001 0.000001 -0.000001 -6.262299 -3.447807 3.167690 2.861511 -0.453707 2.096757 2.868639 -0.368868 2.115152 9.329691 -4.722054 7.652866 9.856694 -23.667300 23.679665 -0.000001 -0.000001 -0.000000 -0.000001 -0.000001 -0.000000 -0.000001 -0.000001 -0.000000 0.612454 -0.061212 -3.967367 -63.004486 5.683887 -8.330805 0.000509 -93.347342 0.000532 38.428065 -8.889713 52.760698 -33.191195 0.831543 1.736166 -5.602731 5.141088 15.384192 -0.000002 -0.000002 0.000002 0.905463 -1.537300 25.351325 0.105948 -2.445832 8.684382 -0.000000 0.000000 -0.000001 0.171943 2.188659 27.822323 -0.338297 -1.588706 1.932859 0.000001 -0.000001 -0.000001 -0.479948 7.317848 29.022983 -0.856451 -1.598409 -2.512789 0.000000 -0.000002 0.000001 -0.372650 13.285912 26.674307 -1.890753 -2.328840 -10.809521 -0.000001 0.000000 -0.000002 -0.000000 -0.000000 0.000003 0.739613 -2.066469 11.589528 -51.353945 -8.750416 -0.641403 0.814354 90.183577 -0.814634 16.161633 30.134890 -64.264908 -14.105092 3.618993 -8.875599 -0.213732 -5.549388 -5.077395 -0.000000 0.000000 -0.000000 -0.058389 2.251326 -2.118714 0.042941 2.458926 -7.986246 -0.000001 0.000000 0.000000 0.640295 -1.195659 -7.203012 -0.156635 1.560186 -3.970604 -0.000001 -0.000000 -0.000001 1.436083 -5.948765 -11.595327 -0.320921 1.575190 -2.973759 0.000000 -0.000000 -0.000001 2.177071 -7.381940 -12.234336 0.248269 -1.554186 2.860982 0.000000 -0.000000 -0.000001 0.000001 0.000003 -0.000002 -0.000000 -0.000000 0.000000 -0.000000 -0.000000 0.000000 -0.000000 -0.000000 0.000000 -0.000000 -0.000000 0.000000 -0.000000 -0.000000 0.000000 -0.000000 0.000000 0.000000 -0.000000 -0.000000 0.000000 -0.000000 -0.000000 0.000000 -0.000000 -0.000000 0.000000 0.000000 0.000000 -0.000000 0.000000 0.000000 -0.000000 -0.000002 -0.000000 0.000000 
2.489909 96.325851 5.899354 -8.904744 -1.561023 -2.389434 0.000001 0.000000 0.000000 -5.108710 -0.198999 9.091245 62.246799 -0.956743 5.992893 9.416028 -0.101739 8.032164 0.000003 -0.000000 0.000000 0.000003 0.000000 0.000001 0.000003 -0.000000 0.000001 -2.671486 6.030448 -12.965022 34.189461 7.237046 -3.762616 13.694463 12.322549 14.783552 0.000003 -0.000000 0.000000 0.000003 -0.000000 0.000000 -0.000000 0.000000 -0.000001 -8.596801 -3.768061 2.825980 3.797962 -0.479771 2.056644 3.806293 -0.410127 2.069781 9.100109 -4.559096 7.670184 9.248860 -22.438380 22.518230 0.000002 -0.000002 -0.000000 0.000002 -0.000002 -0.000000 0.000002 -0.000002 -0.000000 0.663777 -0.192292 -5.684490 -60.101976 5.700880 -10.501797 0.886274 -89.857853 0.887054 37.141852 -8.662095 50.472065 -32.576666 1.268228 2.131068 -5.533318 5.183122 15.244905 -0.000001 0.000000 -0.000001 0.883085 -1.562424 24.708327 0.090154 -2.449717 8.510432 0.000001 0.000000 -0.000000 0.251982 1.913038 26.988451 -0.372454 -1.593028 1.549786 -0.000000 -0.000001 0.000002 -0.256765 6.724654 27.937941 -0.919193 -1.597639 -3.155255 -0.000000 -0.000002 -0.000003 0.020407 12.393184 25.352112 -1.972776 -2.325243 -11.645814 0.000001 -0.000000 0.000001 0.000000 0.000000 0.000001 0.853339 -2.433701 12.010798 -46.759407 -13.774010 2.996429 0.002244 87.295371 -0.002280 14.327239 33.134873 -60.716325 -13.746776 3.128953 -9.087997 -0.213733 -5.549386 -5.077394 -0.000001 -0.000000 0.000001 -0.069033 2.256091 -1.893077 0.021754 2.463617 -7.752975 -0.000000 -0.000000 -0.000001 0.614663 -0.960501 -6.785550 -0.195581 1.566061 -3.529768 -0.000000 -0.000000 -0.000001 1.430983 -5.419362 -10.942090 -0.389310 1.580144 -2.268067 -0.000000 0.000000 0.000003 2.182155 -6.582974 -11.377138 0.160173 -1.546821 3.760342 0.000001 0.000000 0.000004 0.000001 -0.000002 -0.000001 -0.000000 0.000000 -0.000000 -0.000000 0.000000 -0.000000 -0.000000 0.000000 -0.000000 -0.000000 0.000000 -0.000000 -0.000000 0.000000 -0.000000 -0.000000 0.000000 -0.000000 -0.000000 0.000000 -0.000000 -0.000000 0.000000 0.000000 -0.000000 0.000000 0.000000 -0.000000 -0.000000 -0.000000 -0.000000 -0.000000 -0.000000 0.000001 0.000000 0.000000 
